<!DOCTYPE svg PUBLIC "-//W3C//DTD SVG 1.1//EN" "http://www.w3.org/Graphics/SVG/1.1/DTD/svg11.dtd">
<!-- Uploaded to: SVG Repo, www.svgrepo.com, Transformed by: SVG Repo Mixer Tools -->
<svg fill="#ffffff" height="800px" width="800px" version="1.1" id="Capa_1" xmlns="http://www.w3.org/2000/svg" xmlns:xlink="http://www.w3.org/1999/xlink" viewBox="0 0 297 297" xml:space="preserve">
<g id="SVGRepo_bgCarrier" stroke-width="0"/>
<g id="SVGRepo_tracerCarrier" stroke-linecap="round" stroke-linejoin="round"/>
<g id="SVGRepo_iconCarrier"> <g> <path d="M286.542,51.766H10.458C4.682,51.766,0,56.448,0,62.224v172.553c0,5.775,4.682,10.458,10.458,10.458h276.085 c5.775,0,10.458-4.683,10.458-10.458V62.224C297,56.448,292.317,51.766,286.542,51.766z M250.031,72.681l-20.177,13.451H67.146 L46.969,72.681H250.031z M20.915,224.319V79.918l37.453,24.969c1.681,1.122,3.657,1.719,5.678,1.719h168.906 c2.021,0,3.997-0.598,5.678-1.719l37.453-24.969v144.401H20.915z"/> <path d="M223.273,126.539H73.727c-21.624,0-39.216,17.592-39.216,39.217c0,21.624,17.592,39.217,39.216,39.217 c21.624,0,39.217-17.592,39.217-39.217c0-6.607-1.649-12.834-4.547-18.301h80.207c-2.898,5.468-4.547,11.694-4.547,18.301 c0,21.624,17.592,39.217,39.217,39.217c21.624,0,39.216-17.592,39.216-39.217C262.489,144.131,244.897,126.539,223.273,126.539z M73.727,184.056c-10.091,0-18.301-8.21-18.301-18.301c0-10.091,8.21-18.301,18.301-18.301s18.301,8.21,18.301,18.301 C92.028,175.846,83.818,184.056,73.727,184.056z M223.273,184.056c-10.091,0-18.301-8.21-18.301-18.301 c0-10.091,8.21-18.301,18.301-18.301s18.301,8.21,18.301,18.301C241.574,175.846,233.364,184.056,223.273,184.056z"/> </g> </g>
</svg>